name rise30.2954peak35.7071fall66.7804.mot
datacolumns 19
datarows 23
range 5.42165100000000 5.45832000000000
endheader
time	ground_force1_vx	ground_force1_vy	ground_force1_vz	ground_force1_px	ground_force1_py	ground_force1_pz	ground_force2_vx	ground_force2_vy	ground_force2_vz	ground_force2_px	ground_force2_py	ground_force2_pz	ground_torque1_x	ground_torque1_y	ground_torque1_z	ground_torque2_x	ground_torque2_y	ground_torque2_z	
5.42165100000000	-60.20380700000000	823.11187800000005	63.37619800000000	0.09940800000000	0.00000000000000	0.12899600000000	-3.04633200000000	37.01568900000000	5.18315400000000	0.35469800000000	0.00000000000000	-0.07821300000000	0.00000000000000	28.90266000000000	0.00000000000000	0.00000000000000	3.34982200000000	0.00000000000000	
5.42331500000000	-60.50150900000000	821.74209599999995	63.12946900000000	0.09894900000000	0.00000000000000	0.12887000000000	-3.43352600000000	42.67944300000000	5.89438700000000	0.35938100000000	0.00000000000000	-0.07832600000000	0.00000000000000	28.82859100000000	0.00000000000000	0.00000000000000	3.85144900000000	0.00000000000000	
5.42498300000000	-60.79427800000000	820.23840199999995	62.85973200000000	0.09850400000000	0.00000000000000	0.12873700000000	-3.78312900000000	48.23448800000000	6.56440600000000	0.36372300000000	0.00000000000000	-0.07844000000000	0.00000000000000	28.75057500000000	0.00000000000000	0.00000000000000	4.33509600000000	0.00000000000000	
5.42664900000000	-61.08302600000000	818.60034299999995	62.56698100000000	0.09807300000000	0.00000000000000	0.12859900000000	-4.08493600000000	53.59704400000000	7.17958000000000	0.36774500000000	0.00000000000000	-0.07855500000000	0.00000000000000	28.66878300000000	0.00000000000000	0.00000000000000	4.79105300000000	0.00000000000000	
5.42832000000000	-61.36867500000000	816.82752000000005	62.25125500000000	0.09765500000000	0.00000000000000	0.12845500000000	-4.33120800000000	58.70927200000000	7.73036000000000	0.37146600000000	0.00000000000000	-0.07867300000000	0.00000000000000	28.58338900000000	0.00000000000000	0.00000000000000	5.21214100000000	0.00000000000000	
5.42998500000000	-61.65215700000000	814.91958799999998	61.91263200000000	0.09724800000000	0.00000000000000	0.12830500000000	-4.51679100000000	63.54045800000000	8.21140800000000	0.37490200000000	0.00000000000000	-0.07879500000000	0.00000000000000	28.49456700000000	0.00000000000000	0.00000000000000	5.59390200000000	0.00000000000000	
5.43165000000000	-61.93440200000000	812.87623799999994	61.55123100000000	0.09685100000000	0.00000000000000	0.12814900000000	-4.63901300000000	68.08577699999999	8.62136100000000	0.37807000000000	0.00000000000000	-0.07892300000000	0.00000000000000	28.40249500000000	0.00000000000000	0.00000000000000	5.93452700000000	0.00000000000000	
5.43332100000000	-62.21633700000000	810.69719699999996	61.16720900000000	0.09646200000000	0.00000000000000	0.12798800000000	-4.69740400000000	72.36314600000000	8.96230200000000	0.38098100000000	0.00000000000000	-0.07905700000000	0.00000000000000	28.30735000000000	0.00000000000000	0.00000000000000	6.23457700000000	0.00000000000000	
5.43498600000000	-62.49887400000000	808.38221299999998	60.76076400000000	0.09608100000000	0.00000000000000	0.12782000000000	-4.69328100000000	76.40874700000001	9.23904100000000	0.38364900000000	0.00000000000000	-0.07919800000000	0.00000000000000	28.20930800000000	0.00000000000000	0.00000000000000	6.49655200000000	0.00000000000000	
5.43665200000000	-62.78291100000000	805.93105600000001	60.33212600000000	0.09570600000000	0.00000000000000	0.12764600000000	-4.62927700000000	80.27182600000000	9.45830500000000	0.38608400000000	0.00000000000000	-0.07934700000000	0.00000000000000	28.10854700000000	0.00000000000000	0.00000000000000	6.72437200000000	0.00000000000000	
5.43831900000000	-63.06931900000000	803.34350199999994	59.88156500000000	0.09533400000000	0.00000000000000	0.12746700000000	-4.50884900000000	84.00932600000000	9.62789500000000	0.38829700000000	0.00000000000000	-0.07950300000000	0.00000000000000	28.00523900000000	0.00000000000000	0.00000000000000	6.92282900000000	0.00000000000000	
5.43998700000000	-63.35893600000000	800.61933299999998	59.40938400000000	0.09496600000000	0.00000000000000	0.12728200000000	-4.33580500000000	87.68081500000000	9.75591500000000	0.39029800000000	0.00000000000000	-0.07966800000000	0.00000000000000	27.89955700000000	0.00000000000000	0.00000000000000	7.09705800000000	0.00000000000000	
5.44165300000000	-63.65256300000000	797.75832500000001	58.91591800000000	0.09459900000000	0.00000000000000	0.12709200000000	-4.11390100000000	91.34406400000000	9.85010300000000	0.39209600000000	0.00000000000000	-0.07984000000000	0.00000000000000	27.79166600000000	0.00000000000000	0.00000000000000	7.25207200000000	0.00000000000000	
5.44331500000000	-63.95095500000000	794.76024900000004	58.40153400000000	0.09423200000000	0.00000000000000	0.12689600000000	-3.84651300000000	95.05150600000000	9.91730200000000	0.39369900000000	0.00000000000000	-0.08002200000000	0.00000000000000	27.68173000000000	0.00000000000000	0.00000000000000	7.39238500000000	0.00000000000000	
5.44498400000000	-64.25481400000000	791.62485900000001	57.86662800000000	0.09386300000000	0.00000000000000	0.12669400000000	-3.53640300000000	98.84770399999999	9.96309200000000	0.39511600000000	0.00000000000000	-0.08021100000000	0.00000000000000	27.56990400000000	0.00000000000000	0.00000000000000	7.52174100000000	0.00000000000000	
5.44664700000000	-64.56478199999999	788.35189100000002	57.31162600000000	0.09349000000000	0.00000000000000	0.12648700000000	-3.18557800000000	102.76783300000000	9.99158100000000	0.39635400000000	0.00000000000000	-0.08040900000000	0.00000000000000	27.45633900000000	0.00000000000000	0.00000000000000	7.64294600000000	0.00000000000000	
5.44832100000000	-64.88143400000000	784.94105700000000	56.73697800000000	0.09311300000000	0.00000000000000	0.12627500000000	-2.79524100000000	106.83711500000000	10.00534400000000	0.39742200000000	0.00000000000000	-0.08061600000000	0.00000000000000	27.34117600000000	0.00000000000000	0.00000000000000	7.75780800000000	0.00000000000000	
5.44998500000000	-65.20527300000001	781.39204199999995	56.14316000000000	0.09272900000000	0.00000000000000	0.12605800000000	-2.36581500000000	111.07107100000000	10.00548200000000	0.39832700000000	0.00000000000000	-0.08083000000000	0.00000000000000	27.22454600000000	0.00000000000000	0.00000000000000	7.86715900000000	0.00000000000000	
5.45165300000000	-65.53672100000000	777.70450200000005	55.53067000000000	0.09233700000000	0.00000000000000	0.12583600000000	-1.89702800000000	115.47643200000000	9.99178300000000	0.39907600000000	0.00000000000000	-0.08105300000000	0.00000000000000	27.10657400000000	0.00000000000000	0.00000000000000	7.97095200000000	0.00000000000000	
5.45331900000000	-65.87611300000000	773.87805900000001	54.90002800000000	0.09193600000000	0.00000000000000	0.12561000000000	-1.38804200000000	120.05250100000001	9.96295000000000	0.39967600000000	0.00000000000000	-0.08128300000000	0.00000000000000	26.98737100000000	0.00000000000000	0.00000000000000	8.06840900000000	0.00000000000000	
5.45498600000000	-66.22369300000000	769.91230099999996	54.25177300000000	0.09152400000000	0.00000000000000	0.12537800000000	-0.83761000000000	124.79280199999999	9.91686800000000	0.40013400000000	0.00000000000000	-0.08152100000000	0.00000000000000	26.86703700000000	0.00000000000000	0.00000000000000	8.15819300000000	0.00000000000000	
5.45664900000000	-66.57960500000000	765.80678000000000	53.58646200000000	0.09109900000000	0.00000000000000	0.12514300000000	-0.24423800000000	129.68681500000000	9.85088100000000	0.40045700000000	0.00000000000000	-0.08176500000000	0.00000000000000	26.74565800000000	0.00000000000000	0.00000000000000	8.23859700000000	0.00000000000000	
5.45832000000000	-66.94389099999999	761.56101200000001	52.90466800000000	0.09066100000000	0.00000000000000	0.12490300000000	0.39365300000000	134.72167899999999	9.76206000000000	0.40065300000000	0.00000000000000	-0.08201600000000	0.00000000000000	26.62330700000000	0.00000000000000	0.00000000000000	8.30772600000000	0.00000000000000	
